<svg version="1" xmlns="http://www.w3.org/2000/svg" width="1900" height="1900" viewBox="0 0 1425.000000 1425.000000"><path d="M727.1 158.1c-6.3 1.6-15.2 3.1-19.9 3.5-10.7.7-23 4.2-34 9.6-8.1 4-20.8 11.8-26.4 16.2-1.4 1.1-4.1 3.2-6 4.6-6.8 5-30.6 29.8-37.5 39-12.4 16.7-22.1 34.3-31.6 57.5-5.8 14.1-9.4 26.2-11.2 37-5.1 31.8-5.9 51.5-9 228.5-.8 42.2-1.3 68.1-1.4 69.6-.1.6-1.9 1-4.3.8-2.4-.1-9-.4-14.8-.8-5.8-.3-16.1-.8-23-1.2-6.9-.3-14.9-.7-17.7-.9l-5.3-.3v4.7c-.1 7-.1 25.5-.1 26.7.1.8 1.9 1.1 5.4.9 2.8-.2 12-.7 20.2-1 8.3-.4 17.3-.8 20-1 5.8-.3 19.4-.7 21.2-.6.9.1 1.1 55.2.8 238.3-.2 131.1-.5 270-.5 308.7-.1 38.6.1 70.5.4 70.8.5.5 2.6.7 24.1 1.7 6.6.3 17.1.8 23.3 1.1l11.2.6v-2.8c.1-8.8-.2-98.8-.5-154.3-.7-143-1.7-367.4-1.8-414l-.2-49.5 31-.2c17.1-.1 32.8-.2 35.1-.2l4-.1v-14.8l-.1-14.7-5 .1c-2.7 0-10.8.4-18 .8-7.1.3-18.6.9-25.5 1.2-6.9.3-14.4.7-16.7.9-2.6.3-4.3 0-4.5-.8-.2-.7-.3-5.7-.2-11.2.1-5.5.5-40 .8-76.6 1-101.4 1.7-136.5 3.1-160.4.2-3.9.7-12.2 1-18.5.4-6.3.8-13.3 1-15.5.2-2.2.7-6.9 1-10.5 1.3-14.3 2.8-26 4.1-33.5.2-1.1.7-3.6 1-5.5.4-1.9.9-4.4 1.1-5.5.2-1.1.6-3.1.9-4.5 1.5-7.4 6-21.5 9.1-29 10.8-25.4 26.9-41.7 56.3-57.3 19.6-10.4 39-16.9 41-13.8.9 1.5.9 3.6 1.6 74.6.7 65.9 1.1 848.3.4 866.4-.3 9.6-.1 15.9.5 16.7 1.9 2.4 11.2 3.3 35 3.4l24.1.1-.2-143.8c-.2-79.1-.3-177.7-.4-219.2l-.1-75.3 13.6-8.4c30.3-18.8 47.9-24.9 63-21.9 5.3 1 13.8 5.9 16.7 9.5 3.2 4.1 6.6 16.1 7.4 26.5.3 3.8.7 8.6 1 10.5 1.5 13.5 1.8 56.4 1.6 229.1l-.1 195.5h30.7l30.7-.1-.1-132c0-113.6-.4-156.5-1.9-193.5-.7-16.2-3.2-52-4.1-56.4-.2-1-.6-4.4-.9-7.5-.4-3.1-.8-6.3-1-7.1-.2-.8-.7-3.5-1-6-1.9-13.8-7.1-32.8-12-43.5-8.3-18.2-23.4-34.2-39.7-42.2-8.2-4-19.5-6.4-31.3-6.9-18.1-.6-32.8 2.9-47.1 11.3-11.2 6.5-18.5 10.1-21.6 10.7-2.4.4-2.9 0-3.5-2.2-.9-3.1-.8-146.4.1-360.7.5-117 .4-145.5-.6-147.4-1.4-2.6-4.1-3.7-12.2-4.6-2.8-.3-6.4-.8-8-1.2-1.7-.3-9.3-.6-17.1-.8-12.6-.2-15.3.1-25.4 2.6z"/></svg>